HIERARCHY
ROOT Hips
{
	OFFSET -14.64140 90.27770 -84.91600
	CHANNELS 6 Xposition Yposition Zposition Zrotation Xrotation Yrotation
	JOINT Spine
	{
		OFFSET 0.00000 13.20850 -1.60436
		CHANNELS 3 Zrotation Xrotation Yrotation
		JOINT Spine1
		{
			OFFSET 0.00000 8.61716 0.00000
			CHANNELS 3 Zrotation Xrotation Yrotation
			JOINT Spine2
			{
				OFFSET 0.00000 8.61717 0.00000
				CHANNELS 3 Zrotation Xrotation Yrotation
				JOINT Spine3
				{
					OFFSET 0.00000 8.61717 0.00000
					CHANNELS 3 Zrotation Xrotation Yrotation
					JOINT Neck
					{
						OFFSET 0.00000 11.07920 1.10792
						CHANNELS 3 Zrotation Xrotation Yrotation
						JOINT Neck1
						{
							OFFSET 0.00000 7.08032 0.00000
							CHANNELS 3 Zrotation Xrotation Yrotation
							JOINT Head
							{
								OFFSET 0.00000 7.08031 0.00000
								CHANNELS 3 Zrotation Xrotation Yrotation
								End site
								{
									OFFSET 0.00000 0.00000 0.00000
								}
							}
						}
					}
					JOINT RightShoulder
					{
						OFFSET -0.01000 7.91373 5.19711
						CHANNELS 3 Zrotation Xrotation Yrotation
						JOINT RightArm
						{
							OFFSET -18.41580 0.00000 0.00000
							CHANNELS 3 Zrotation Xrotation Yrotation
							JOINT RightForeArm
							{
								OFFSET -29.11090 0.00000 0.00000
								CHANNELS 3 Zrotation Xrotation Yrotation
								JOINT RightHand
								{
									OFFSET -24.65040 0.00000 0.00000
									CHANNELS 3 Zrotation Xrotation Yrotation
									JOINT RightHandThumb1
									{
										OFFSET -5.35114 -0.85590 3.97906
										CHANNELS 3 Zrotation Xrotation Yrotation
										JOINT RightHandThumb2
										{
											OFFSET -4.52789 0.00000 0.00000
											CHANNELS 3 Zrotation Xrotation Yrotation
											JOINT RightHandThumb3
											{
												OFFSET -2.46976 0.00000 0.00000
												CHANNELS 3 Zrotation Xrotation Yrotation
												End site
												{
													OFFSET 0.00000 0.00000 0.00000
												}
											}
										}
									}
									JOINT RightHandIndex1
									{
										OFFSET -14.26970 0.00000 2.88139
										CHANNELS 3 Zrotation Xrotation Yrotation
										JOINT RightHandIndex2
										{
											OFFSET -5.48836 0.00000 0.00000
											CHANNELS 3 Zrotation Xrotation Yrotation
											JOINT RightHandIndex3
											{
												OFFSET -3.01859 0.00000 0.00000
												CHANNELS 3 Zrotation Xrotation Yrotation
												End site
												{
													OFFSET 0.00000 0.00000 0.00000
												}
											}
										}
									}
									JOINT RightHandMiddle1
									{
										OFFSET -14.26970 0.00000 -0.09147
										CHANNELS 3 Zrotation Xrotation Yrotation
										JOINT RightHandMiddle2
										{
											OFFSET -6.17441 0.00000 0.00000
											CHANNELS 3 Zrotation Xrotation Yrotation
											JOINT RightHandMiddle3
											{
												OFFSET -3.56743 0.00000 0.00000
												CHANNELS 3 Zrotation Xrotation Yrotation
												End site
												{
													OFFSET 0.00000 0.00000 0.00000
												}
											}
										}
									}
									JOINT RightHandRing1
									{
										OFFSET -12.69180 0.00000 -3.06433
										CHANNELS 3 Zrotation Xrotation Yrotation
										JOINT RightHandRing2
										{
											OFFSET -5.62556 0.00000 0.00000
											CHANNELS 3 Zrotation Xrotation Yrotation
											JOINT RightHandRing3
											{
												OFFSET -3.56744 0.00000 0.00000
												CHANNELS 3 Zrotation Xrotation Yrotation
												End site
												{
													OFFSET 0.00000 0.00000 0.00000
												}
											}
										}
									}
									JOINT RightHandPinky1
									{
										OFFSET -11.11390 0.00000 -6.03719
										CHANNELS 3 Zrotation Xrotation Yrotation
										JOINT RightHandPinky2
										{
											OFFSET -4.52789 0.00000 0.00000
											CHANNELS 3 Zrotation Xrotation Yrotation
											JOINT RightHandPinky3
											{
												OFFSET -2.46976 0.00000 0.00000
												CHANNELS 3 Zrotation Xrotation Yrotation
												End site
												{
													OFFSET 0.00000 0.00000 0.00000
												}
											}
										}
									}
								}
							}
						}
					}
					JOINT LeftShoulder
					{
						OFFSET 0.01000 7.91373 5.19711
						CHANNELS 3 Zrotation Xrotation Yrotation
						JOINT LeftArm
						{
							OFFSET 18.41580 0.00000 0.00000
							CHANNELS 3 Zrotation Xrotation Yrotation
							JOINT LeftForeArm
							{
								OFFSET 29.11090 0.00000 0.00000
								CHANNELS 3 Zrotation Xrotation Yrotation
								JOINT LeftHand
								{
									OFFSET 24.65040 0.00000 0.00000
									CHANNELS 3 Zrotation Xrotation Yrotation
									JOINT LeftHandThumb1
									{
										OFFSET 5.35114 -0.85590 3.97906
										CHANNELS 3 Zrotation Xrotation Yrotation
										JOINT LeftHandThumb2
										{
											OFFSET 4.52789 0.00000 0.00000
											CHANNELS 3 Zrotation Xrotation Yrotation
											JOINT LeftHandThumb3
											{
												OFFSET 2.46977 0.00000 0.00000
												CHANNELS 3 Zrotation Xrotation Yrotation
												End site
												{
													OFFSET 0.00000 0.00000 0.00000
												}
											}
										}
									}
									JOINT LeftHandIndex1
									{
										OFFSET 14.26970 0.00000 2.88139
										CHANNELS 3 Zrotation Xrotation Yrotation
										JOINT LeftHandIndex2
										{
											OFFSET 5.48836 0.00000 0.00000
											CHANNELS 3 Zrotation Xrotation Yrotation
											JOINT LeftHandIndex3
											{
												OFFSET 3.01859 0.00000 0.00000
												CHANNELS 3 Zrotation Xrotation Yrotation
												End site
												{
													OFFSET 0.00000 0.00000 0.00000
												}
											}
										}
									}
									JOINT LeftHandMiddle1
									{
										OFFSET 14.26970 0.00000 -0.09147
										CHANNELS 3 Zrotation Xrotation Yrotation
										JOINT LeftHandMiddle2
										{
											OFFSET 6.17440 0.00000 0.00000
											CHANNELS 3 Zrotation Xrotation Yrotation
											JOINT LeftHandMiddle3
											{
												OFFSET 3.56744 0.00000 0.00000
												CHANNELS 3 Zrotation Xrotation Yrotation
												End site
												{
													OFFSET 0.00000 0.00000 0.00000
												}
											}
										}
									}
									JOINT LeftHandRing1
									{
										OFFSET 12.69180 0.00000 -3.06433
										CHANNELS 3 Zrotation Xrotation Yrotation
										JOINT LeftHandRing2
										{
											OFFSET 5.62556 0.00000 0.00000
											CHANNELS 3 Zrotation Xrotation Yrotation
											JOINT LeftHandRing3
											{
												OFFSET 3.56744 0.00000 0.00000
												CHANNELS 3 Zrotation Xrotation Yrotation
												End site
												{
													OFFSET 0.00000 0.00000 0.00000
												}
											}
										}
									}
									JOINT LeftHandPinky1
									{
										OFFSET 11.11390 0.00000 -6.03719
										CHANNELS 3 Zrotation Xrotation Yrotation
										JOINT LeftHandPinky2
										{
											OFFSET 4.52789 0.00000 0.00000
											CHANNELS 3 Zrotation Xrotation Yrotation
											JOINT LeftHandPinky3
											{
												OFFSET 2.46976 0.00000 0.00000
												CHANNELS 3 Zrotation Xrotation Yrotation
												End site
												{
													OFFSET 0.00000 0.00000 0.00000
												}
											}
										}
									}
								}
							}
						}
					}
					JOINT pCube4
					{
						OFFSET 0.00000 10.91090 1.10792
						CHANNELS 3 Zrotation Xrotation Yrotation
						End site
						{
							OFFSET 0.00000 0.00000 0.00000
						}
					}
				}
			}
		}
	}
	JOINT RightUpLeg
	{
		OFFSET -9.98441 0.00000 0.00000
		CHANNELS 3 Zrotation Xrotation Yrotation
		JOINT RightLeg
		{
			OFFSET 0.00000 -42.11790 0.00000
			CHANNELS 3 Zrotation Xrotation Yrotation
			JOINT RightFoot
			{
				OFFSET 0.00000 -45.00020 -0.00001
				CHANNELS 3 Zrotation Xrotation Yrotation
				JOINT RightForeFoot
				{
					OFFSET 0.00000 -3.74820 0.00000
					CHANNELS 3 Zrotation Xrotation Yrotation
					JOINT RightToeBase
					{
						OFFSET 0.00000 0.06325 14.43120
						CHANNELS 3 Zrotation Xrotation Yrotation
						End site
						{
							OFFSET 0.00000 0.00000 0.00000
						}
					}
				}
			}
		}
	}
	JOINT LeftUpLeg
	{
		OFFSET 9.98441 0.00000 0.00000
		CHANNELS 3 Zrotation Xrotation Yrotation
		JOINT LeftLeg
		{
			OFFSET 0.00000 -42.11800 0.00000
			CHANNELS 3 Zrotation Xrotation Yrotation
			JOINT LeftFoot
			{
				OFFSET 0.00000 -45.00070 0.00000
				CHANNELS 3 Zrotation Xrotation Yrotation
				JOINT LeftForeFoot
				{
					OFFSET 0.00000 -3.74824 0.00000
					CHANNELS 3 Zrotation Xrotation Yrotation
					JOINT LeftToeBase
					{
						OFFSET 0.00000 0.06325 14.43110
						CHANNELS 3 Zrotation Xrotation Yrotation
						End site
						{
							OFFSET 0.00000 0.00000 0.00000
						}
					}
				}
			}
		}
	}
}
MOTION
Frames: 4
Frame Time: 0.050000
-0.0053146702382985194 -0.030641593054289262 0.006824920117076296 0.009251767741969397 -0.03441041767250852 0.008791226263265178 5.125317922755981 3.1734802804919005 -2.240100568173276 -0.9123503292831872 3.44205966268331 0.4339446275462859 -0.7267747492072325 -0.9249456514783322 0.866960356953552 -0.48775881518151865 -0.3011732929819461 -0.2809510517690665 0.2924190071156283 11.339590997664596 -1.607981429573548 0.38893477501802753 -0.6541822961717669 -3.9411314969622273 1.0844043282793105 -17.36349846869084 -0.38433142241828266 -11.81483573542865 4.05803952622777 -16.48635615080817 80.67451598309079 -1.6331846148838107 13.93892038017017 23.428042514423115 1.4480630129076613 83.34065457956001 9.654163909719673 -0.44415339039272406 -5.345780041914787 4.547972838573509 -0.11488217982959975 -1.5479688299573016 -0.026612190353537214 0.02604645554402968 -56.24855350372723 0.0299155866649917 0.01139167383852523 -56.233848269331894 -38.7950579316407 -0.02683765286529918 0.0104184385856748 -0.020580541375481518 -0.026595437333378037 0.04087828349605854 0.039915364617757826 -0.01597102038432726 -0.04941599312155834 -36.682353741825544 -0.01158071419738698 -0.04426134391029541 0.005306980337356053 -0.025817645025257845 -0.011335744531929055 0.04923001117132699 0.007418429689511373 -0.01562117923606107 -19.71599146281927 0.020790251661112612 -0.0137962338810795 -0.023078938274752554 0.029485851508948467 0.02452339212314147 0.017747931137221375 -0.04595238755588771 0.04336678590535624 24.032829778625878 0.009154391061762029 0.04144926608406721 28.835795286505203 -0.017739669276974637 -0.0181231202700277 28.857381068973215 -0.02265288935123401 0.04451589974885155 10.825071121338414 2.601663853991233 13.503288780854165 -79.00813132493076 17.677996664622196 -13.276947893469345 -69.42148928561453 11.831864671121812 -95.36495787188002 -8.085181070783475 -9.349909924143173 6.0136872401575765 -0.46415289632264134 0.11084274931200944 -8.100720999257778 -0.04289622527035004 0.013481967849117114 44.523562942583354 0.006596448343722766 0.025288015022347198 44.59136457911483 12.49515299420538 0.04632664168392971 -0.04947568551083821 -0.025894972591744406 0.02923659437874098 0.02823745721958231 -0.008711861727826568 -0.02662669357521158 0.023701890419831853 11.106056705064129 -0.011751311592236562 -0.029848763887368863 0.04667255749321828 0.015205221940408947 -0.04430678036913933 -0.008617868032730928 -0.021547223568671038 -0.01560175551104071 4.762231677905391 -0.04631339157079103 -0.012424482843537534 -0.045568633139844536 -0.043250446770446246 0.024447255511101957 -0.0025720229310050025 -0.0312839045957429 -0.030387947270329584 -5.554126202673069 0.01062194569073458 -0.008820715638168858 -6.708579921509461 -0.02266039754507859 -0.04112359392326131 -6.747810525734964 -0.007561750970057519 0.0455895712374192 0.026607126164949424 -0.038825577217118615 -0.006442660150185269 8.06409848521432 3.5181647756369436 -19.259055251244146 -0.01905657196410134 10.439570765612865 -0.013496618607678545 -5.571475791043878 -15.676966266462077 3.2164826542656795 -0.020894364447540757 -0.04044810199056886 0.014854681254216712 0.00020944098450080125 4.661910647144481 0.03940116155134981 12.412613491689491 -8.216939277672742 6.860807650860588 0.03655884612235987 46.41289618819676 -0.02566783530778642 -4.349526890057524 -14.732121583953555 -3.8123604465103997 -0.011160261517542968 0.005204773672207687 0.004913356154986988 -0.02548042418446676 -10.729721425051887 -0.012459021297461086 
-0.02875127387539993 -0.007162795510113834 -0.024878325204732682 0.005054372869779764 -0.033396898944400046 -0.00932502068413319 5.1018923195133725 3.240955723865717 -2.181870446930712 -0.9138596189275171 3.4343243402199084 0.4167887021422911 -0.7682226270944588 -0.8654785641636201 0.7605443791466627 -0.4573473873081669 -0.31062813509894066 -0.2725400364448999 0.31001956864333285 11.24171459662136 -1.6936247811085343 0.38914468987458095 -0.7286166159888661 -4.206201836486136 1.0999854414208399 -17.44094350116419 -0.3640579750889957 -11.700645753171333 4.031744136377891 -16.60913845533689 81.098961931454 -2.179345326064812 13.051602054354264 23.586865179815753 1.5457232558900085 82.29207298024699 9.891933718911888 -0.4882383365651109 -5.573492344967555 4.496378381599166 -0.15892045579215489 -1.612937910179947 -0.03816176381131746 -0.04025227983671148 -56.26783049577318 -0.0168403152956398 0.015766530605906017 -56.21548059263074 -38.80248521990696 0.04235179618556848 0.015460318937433368 0.009039351688304692 -0.01572910674601498 -3.046603453452456e-06 0.04001979016597497 0.019151218833652305 0.010296749359411227 -36.69766267483608 0.011312687644618798 -0.024135733770554234 -0.031704412792441884 0.01815187691769055 -0.02476055092362243 -0.04834175360605691 -0.02431861700985879 -0.02438541787663838 -19.792469685303068 0.0376120267702263 0.01003696849791013 0.031383401472981125 -0.016646217945426107 -0.0045725418467010915 0.029257069835767698 0.03648191908424078 0.005427636560135447 24.079470256604257 0.008587829089959592 -0.04783594664832901 28.8335277974217 -0.025534486377396196 0.04354133888227209 28.84038478561379 0.025553155461607104 -0.019354843476349724 10.665022194738237 2.574301762972376 13.406456637839186 -79.1728926326824 17.322509722506304 -12.971250957907792 -71.69414677103099 11.895685642976089 -96.0719647841775 -8.074745617977953 -9.75036645638888 6.225211410170439 -0.47719174849860446 0.029839674056121118 -8.107265894010654 -0.0012456109282478933 -0.03893374195383197 44.534715720441284 -0.009740488724451496 0.0205476128826369 44.524049085886205 12.458101251294574 0.04076116822536647 -0.02367479836047086 0.04371120399353403 0.03507125952440901 0.024997347874197513 0.04790141874904679 -0.027971240761752825 -0.0012955218458737723 11.09993553597007 -0.025254530479139645 0.01405048403690838 -0.005867734666356133 -0.027311171092498174 -0.01537850051772153 -0.03616298965697686 -0.02958183978363431 -0.002790303886285383 4.744721335185257 -0.010116287006507707 0.0040422384212234486 -0.012729829438158669 -0.02723433448260982 0.021337617352027823 -0.020624922160030076 -0.027492792870456743 0.025447400518200245 -5.552473813783988 -0.023763972579100553 0.01569450168622503 -6.687289762446798 0.017658833407806846 -0.013271549279101166 -6.709199802404791 0.003703951641635647 -0.018059934611694577 -0.0064622616403798554 0.004371444707594968 0.020139973093024115 8.04638930618279 3.484772782230145 -19.217279841778357 0.037759172726382934 10.369734022365973 -0.024270527125398306 -5.596301767115255 -15.639586187366705 3.1692482652500233 0.02203196305152873 -0.0004883134911638782 -0.03207290043945099 0.02041118776952148 4.727328266696705 -0.016051635425265345 12.426577845259208 -8.230750807615264 6.848099451066464 0.03252093034743363 46.40059222406171 -0.03303155009265969 -4.348781506031102 -14.780356667321808 -3.846015329163107 0.01893666008979829 0.0018278701805167243 0.027052477653291256 0.002115462075900765 -10.750099556793502 0.030557175182994833 
0.0031121394089775856 0.04868059164460295 0.017178802179383935 0.018949739303445224 0.048059373846236035 -0.021094607153416708 5.225308530242308 3.211363943125891 -2.2442056780205624 -0.8621203034986494 3.424106106578185 0.43551234166017017 -0.7189388548148951 -0.8332792037102736 0.6688488365940419 -0.4124100160123522 -0.2974340524264044 -0.31260539290746564 0.25102785024729823 11.174790194134923 -1.6952780549346862 0.37735723694441803 -0.767512614118805 -4.156336530422815 1.1142121629236446 -17.48806970240141 -0.39546707802047953 -11.491740848155224 3.9628666532363357 -16.745159760320057 81.3161904589276 -2.005223547552654 11.661325403889348 23.539621590573244 1.6370835248831395 81.87016281835298 10.030183795550919 -0.42080997507090956 -5.6740222320519 4.544499999018424 -0.15870222371281606 -1.6267992150634571 -0.01704013118282936 0.018688560063251734 -56.2782832232925 0.04332646348724057 -0.02796652406086486 -56.19660309225155 -38.809588168815075 -0.013652425283059743 0.02375363928380769 0.0010839419130276434 -0.03723125935131546 0.0402930929502999 0.024822972340874758 -0.004624160223587668 0.031825274340032364 -36.67611888110655 0.012754257383084902 0.04404211148410425 -0.007066739653641822 0.02114280664348857 -0.03145656174187627 0.01521546767553201 -0.0437782021569674 -0.04503123029975701 -19.764912875118416 -0.03723301501595069 0.01588812277865824 -0.04134011683554309 -0.04740039564256784 -0.039021499827865104 -0.03336740633838974 0.041223421439084196 -0.04749132255851211 24.067655326161375 0.01782167045937572 3.258310847561566e-05 28.869710608512165 0.04254946369205611 0.046565555102223107 28.906569347564638 0.020216938298775602 0.03588705547590384 10.652331653343731 2.542841521501407 13.568549189630675 -79.34874394091959 17.09935942353799 -12.339734054336502 -73.9768698498052 11.648578136190011 -97.39504658264123 -8.582278726198748 -10.449463282535593 6.595611064596288 -0.48730678558562246 0.043687982379431445 -8.108120126085675 0.048371280566387696 0.014140839875362776 44.57946887921385 0.044299153084378706 -0.04763746204068325 44.54032983148878 12.44727614148688 -0.009235906737380782 0.01591675916235804 -0.04809226383119623 -0.014009444810594511 0.02784907226260846 0.015571879297334217 0.007970582586051178 -0.015010750052138797 11.09171489665775 0.04384785309614066 -0.035858150420096296 -0.04548442091990692 0.010051468801881123 0.01734480754944147 0.023033631311113353 -0.034581865288907304 -0.0021350818029829675 4.763317618023632 0.028895861584326134 -0.01586343152946758 0.038989951157174775 0.028673549078226904 -0.04920485166913306 0.004955994563517023 0.0023789267705035086 -0.00040680048433207317 -5.599890023292031 0.034111619763814084 -0.049607178751526856 -6.731369099904106 -0.012629191235317343 -0.03347482262044575 -6.6756642632585175 -0.025179807377474717 0.012066216056342031 0.00867793134147098 -0.03854851867732638 -0.014307313601619886 7.999011846991109 3.5254184945252627 -19.209155755349496 -0.028075549986221505 10.388406829944488 0.025459903729983295 -5.618216137072876 -15.688099169522792 3.208774976726724 0.032305961447943024 -0.022479370239803717 -0.018451741124026158 -0.043976407921265524 4.686436762003098 0.021859755097573163 12.47495594414892 -8.191379695062656 6.900165171307478 0.04083457388256619 46.39942917797859 -0.020456405067821485 -4.3147390203955425 -14.724363959441284 -3.8143273191693394 0.0022276575004127708 0.033592240378257865 -0.011272364056775588 0.01460268792857491 -10.733418505584794 0.04872046966366989 
-0.017959175283030947 -0.005608821576323917 -0.021019956377628074 -0.006741276966354123 0.005180932620533183 -0.01032820692506873 5.319677851923497 3.060531843992837 -2.3072558329157866 -0.8953253299078776 3.3875345065139513 0.3697059613197141 -0.7507882426981489 -0.8807631618769448 0.7248064953174701 -0.3753615618660445 -0.3234803800978246 -0.3165409810334499 0.2627221428929904 11.202435025776408 -1.6836970286561783 0.32357835913134586 -0.7635211875414619 -4.0069552446207215 1.0687043920764656 -17.393417368089473 -0.41742010206401026 -11.396952337031944 3.894677317378988 -17.048990600391196 82.02278940871777 -2.003526582780352 9.661886997384665 22.998664525601214 1.3503680928484394 81.80613184290902 9.674006306569312 -0.5369537648893763 -5.689830363486494 4.526128387832079 -0.09323422410981907 -1.5464866003894113 0.00644193748900255 -0.012857559716953218 -56.27179476510707 0.005357701495115511 0.027059848138855914 -56.20803250154636 -38.74797195860361 -0.002523908764969955 -0.029117872729848865 0.02201912544812987 -0.014243883218964961 0.007801754054428281 -0.014549128778320347 -0.00984244456867919 0.0010942711760157445 -36.64485843835418 0.027398848434711194 -0.0021386728095047504 -0.03159575870554121 0.01623113001332368 0.019641496240233522 -0.004387166211299554 0.022443147666002625 0.02859314476174216 -19.792177355561833 -0.021919579021939445 0.014262114957209492 -0.04973701601472012 -0.024442716352980058 0.00665675155746991 0.035925180246285604 0.014864248179945692 0.03310551104511431 24.014941061644485 0.03322315739738132 -0.0020943955228063574 28.853446095736068 -0.03404197198856292 0.03731602395705442 28.88438285186382 0.011749505560958386 0.003947173578218471 10.608115998284683 2.5195122450734484 13.824779035968374 -79.77708929367417 16.23633624101805 -11.258287731805313 -76.79657617769672 11.135840283794181 -98.67541762348739 -8.693710521906828 -11.23407610299607 6.754850006848542 -0.4313801007382477 0.05769457692724644 -8.101419854965966 0.025140967844696157 0.03872735600854746 44.54805517574748 0.008399531632000454 -0.045372572685248864 44.568292635713526 12.499759206815485 -0.017775265782009858 0.03172779774783182 -0.009049314370191996 -0.03124359270325853 0.020950789839580455 -0.028399967580123305 0.03083825962314949 0.025459667059366305 11.125812660454164 0.015385630251400209 -0.03460785259693014 -0.006857028701342575 0.0053871560974230815 0.04833497705631735 -0.03246415157088247 0.018155354625738966 0.0414589201557481 4.763863559769171 -0.005411913166554225 0.03505578976439326 -0.009580698735743035 -0.04062978080003973 -0.01444445155544191 -0.02602954606270094 -0.03932279754388045 0.010937439921804981 -5.550964051809948 -0.0250774648011879 -0.009028800200801419 -6.6899544378207425 0.039068478336091915 0.0020879172910528787 -6.677741988648918 0.02530288732353732 0.017530031425571035 -0.02290322802555648 0.017747822736248434 0.0011321735458306177 8.065490724701446 3.474520488872384 -19.210675600165064 0.04296267106612216 10.356338169342754 -0.0005214360598573831 -5.623054987727623 -15.676309955961274 3.201979591456733 -0.015312296340929732 0.019882290427529245 0.006630590954805725 -0.030344716975187334 4.66855888428719 -0.014516826008711153 12.476258437637082 -8.213131720770708 6.906904131271784 -0.01710923548266651 46.370454377452816 -0.02004552006536768 -4.339666382774348 -14.743316678410604 -3.8373164049329667 0.010978335322551004 -0.04012772789625292 -0.022900721796029984 -0.015838964506118533 -10.75400768875845 -0.00351772345646289 
